<svg xmlns="http://www.w3.org/2000/svg" data-name="Layer 1" viewBox="0 0 982.5 763"><circle cx="559.4" cy="333.1" r="40" fill="#e6e6e6"/><path fill="#3f3d56" d="m657.5 384.5-41.8-41.8a44.3 44.3 0 0 0-14.4-62 44.5 44.5 0 0 0-59 12.3 44.3 44.3 0 0 0 60.1 63l41.8 41.8a9.4 9.4 0 0 0 13.3-13.3Zm-56.7-43.4a31.7 31.7 0 1 1 9.3-22.4 31.6 31.6 0 0 1-9.3 22.4Z"/><path fill="#e6e6e6" d="M960.8 446.2C1067.8 564.5 757.6 735 507 735S83 603 53.3 446.2c-72.2-380 615.1-621.4 453.8-288.8C271.9 642.2 876.5 353 960.8 446.2Z"/><path fill="#3f3d56" d="M912.8 474.2C1019.8 592.5 709.6 763 459 763S35 631 5.3 474.2c-72.2-380 615.1-621.4 453.8-288.8C223.9 670.2 828.5 381 912.8 474.2Z"/><path fill="#0066fe" d="M149.6 196.8C74.6 193.5 16.3 177.3 17 160c.4-10.5 21.7-18.8 58.3-23a1 1 0 1 1 .2 2C41 143 19.4 151 19 160c-.7 15.8 59.1 31.7 130.6 34.8s132.4-7.4 133.1-23.1c.4-9.1-20.6-19.1-54.8-26a1 1 0 1 1 .4-2c36.3 7.4 56.9 17.6 56.4 28-.7 17.4-60.1 28.4-135.2 25.1ZM83 199.7a77 77 0 0 0 133 5.6 1212 1212 0 0 1-133-5.6Z"/><path fill="#0066fe" d="M224.3 184.2a77 77 0 1 0-147.8-5.7 572.2 572.2 0 0 0 147.8 5.7Z"/><circle cx="168.8" cy="123.6" r="9" fill="#fff"/><circle cx="122.5" cy="152.6" r="15" fill="#fff"/><circle cx="348.9" cy="142.9" r="10" fill="#0066fe"/><circle cx="122.9" cy="452.9" r="6" fill="#e6e6e6"/><circle cx="542.9" cy="658.9" r="6" fill="#e6e6e6"/><circle cx="151.9" cy="339.9" r="3" fill="#e6e6e6"/><circle cx="399.9" cy="563.9" r="3" fill="#e6e6e6"/><circle cx="850.9" cy="534.9" r="3" fill="#e6e6e6"/><circle cx="709.9" cy="623.9" r="3" fill="#e6e6e6"/><circle cx="562.9" cy="515.9" r="3" fill="#e6e6e6"/><circle cx="372.9" cy="219.9" r="3" fill="#e6e6e6"/><circle cx="396.9" cy="71.9" r="3" fill="#e6e6e6"/><circle cx="382.9" cy="694.9" r="3" fill="#e6e6e6"/><circle cx="234.9" cy="631.9" r="3" fill="#e6e6e6"/><circle cx="703.9" cy="523.9" r="3" fill="#e6e6e6"/><circle cx="148.4" cy="224.8" r="9" fill="#fff"/><path fill="#fff" d="M351.9 362.9c0 26.9-41.6 89.5-53.7 107.2a4 4 0 0 1-6.6 0C279.5 452.4 238 389.8 238 363a57 57 0 1 1 114 0Z"/><circle cx="294.9" cy="358.9" r="29" fill="#0066fe"/><ellipse cx="294.4" cy="496.4" fill="#fff" rx="33.5" ry="6.5"/><path fill="#ffb8b8" d="M816.9 318a10.5 10.5 0 0 0-.7 1.4l-47.8 13.3-8.6-8.4-14.4 11.3 13.8 16.4a8 8 0 0 0 9.3 2.2l51.7-22.8a10.5 10.5 0 1 0-3.3-13.5Z"/><path fill="#0066fe" d="m766.7 333.5-17.9 14a4.5 4.5 0 0 1-6.7-1.4L731 326.4a12.5 12.5 0 0 1 19.8-15.3l16.3 15.6a4.5 4.5 0 0 1-.4 6.8Z"/><path fill="#3f3d56" d="m821.4 311.3 18.2 8.2a3.1 3.1 0 0 1 1.6 4.2l-2.2 4.7a1 1 0 0 1 .6 1.4l-.9 2a1 1 0 0 1-1.4.5l-.8 1.9a1 1 0 0 1 .5 1.4l-.9 1.9a1 1 0 0 1-1.4.5l-11.6 26a3.1 3.1 0 0 1-4.1 1.5l-18.2-8.1a3.1 3.1 0 0 1-1.6-4.2l18-40.2a3.1 3.1 0 0 1 4.2-1.6Z"/><path fill="#f2f2f2" d="m804 354.7 14.7 6.6a3 3 0 0 0 4-1.5l6.7-15 2.3-5.2 6.1-13.6a3 3 0 0 0-1.5-4l-4.6-2-10-4.5a3 3 0 0 0-4 1.5l-5.9 13.1-6.7 15-2.5 5.6a3 3 0 0 0 1.5 4Z"/><path fill="#ffb8b8" d="M773.6 540.4h12.2l5.9-47.2h-18.1v47.2z"/><path fill="#2f2e41" d="M770.5 536.4h24.1a15.4 15.4 0 0 1 15.4 15.4v.5h-39.5Z"/><path fill="#ffb8b8" d="M805.6 537.4h12.2l5.9-47.2h-18.1v47.2z"/><path fill="#2f2e41" d="M802.5 533.4h24.1a15.4 15.4 0 0 1 15.4 15.4v.5h-39.5Zm-83.9-103.9a39.4 39.4 0 0 0 36.9 26.8h.6c6.3.2 13.8-1.9 21-4.8 14.5-5.8 28.3-15 32-17.6l-6.3 59.8-2.5 24.2a4.5 4.5 0 0 0 4.5 5h15.5a4.5 4.5 0 0 0 4.4-3.4l25.6-97.6a19 19 0 0 0-19.7-23.8l-53.2 3.6 3.7-14.9-47.6-3.1h-.1l-3.3 2.7a40.3 40.3 0 0 0-7 7.6 38.5 38.5 0 0 0-4.5 35.5Z"/><path fill="#2f2e41" d="M718.6 429.5a39.4 39.4 0 0 0 36.9 26.8 196.1 196.1 0 0 0 22.6-13.4l-1 8.6-7.8 75.4a4.5 4.5 0 0 0 4.5 5h15.5a4.5 4.5 0 0 0 4.4-3.4l9.1-34.8 16.5-62.8a19 19 0 0 0-19.7-23.8l-53.2 3.6 3.7-14.9-27-1.8a38.5 38.5 0 0 0-4.5 35.5Z"/><path fill="#0066fe" d="M730 389.8h-.3l-8.3-40.8c-.1-.4-6.9-35.5 13.9-54l.4-2.4a4.5 4.5 0 0 1 5.8-3.7l19.5 6a4.5 4.5 0 0 1 3 5.5l-1.9 7.3c2.7 3 33.8 40.5 23 69.3l-5 19Z"/><path fill="#ffb8b8" d="M811.3 358a10.5 10.5 0 0 0-1.3 1l-47.9-13-3.1-11.6-18.2 2.4 3.5 21.2a8 8 0 0 0 7 6.6l56 6.6a10.5 10.5 0 1 0 4-13.3Z"/><path fill="#0066fe" d="m760.3 346-22.6 2.8a4.5 4.5 0 0 1-5-4.5l.4-22.7a12.5 12.5 0 0 1 24.8-3l6.1 21.7a4.5 4.5 0 0 1-3.7 5.6Z"/><circle cx="753.9" cy="258.8" r="24.6" fill="#ffb8b8"/><path fill="#2f2e41" d="m752.6 260.9-3-5.6a67 67 0 0 0 4.4 43.3L714 280l.5-6.6-4 4.5-5.7-3.1-.7-4.3-4.3 1 15.6-28.3c15.2-27 37.3-16.7 37.3-16.7 35.1-1.7 30.8 33 30.8 33Z"/><ellipse cx="556.2" cy="472.4" fill="#3f3d56" rx="12.2" ry="47.5" transform="rotate(-32.7 385 623.7)"/></svg>